<svg xmlns="http://www.w3.org/2000/svg" viewBox="0 0 500 500"><g id="freepik--Shadow--inject-32"><ellipse id="freepik--path--inject-32" cx="250" cy="416.24" rx="193.89" ry="11.32" style="fill:#f5f5f5"></ellipse></g><g id="freepik--Device--inject-32"><rect x="100.13" y="105.56" width="173.6" height="312.25" rx="10.4" style="fill:#22B8CF"></rect><rect x="100.13" y="105.56" width="173.6" height="312.25" rx="10.4" style="fill:#fff;opacity:0.4"></rect><path d="M267.88,116V406.79a4.26,4.26,0,0,1-4.32,4.25H109.84a3.81,3.81,0,0,1-3.85-3.9V115.67a3.44,3.44,0,0,1,3.3-3.57h38.43a2.72,2.72,0,0,1,2.48,1.73l1.59,3.92a2.7,2.7,0,0,0,2.47,1.71h65.43a2.67,2.67,0,0,0,2.47-1.68l1.59-3.94a2.73,2.73,0,0,1,2.48-1.74H264.1A3.89,3.89,0,0,1,267.88,116Z" style="fill:#263238"></path><rect x="105.99" y="130.27" width="161.89" height="261.5" style="fill:#fff;opacity:0.30000000000000004;isolation:isolate"></rect><rect x="123.83" y="121.16" width="2" height="2.67" transform="translate(249.66 244.98) rotate(180)" style="fill:#fff;opacity:0.6000000000000001;isolation:isolate"></rect><rect x="120.57" y="120.27" width="2" height="3.56" transform="translate(243.14 244.09) rotate(180)" style="fill:#fff;opacity:0.6000000000000001;isolation:isolate"></rect><rect x="117.31" y="119.38" width="2" height="4.44" transform="translate(236.63 243.2) rotate(180)" style="fill:#fff;opacity:0.6000000000000001;isolation:isolate"></rect><rect x="114.05" y="118.49" width="2" height="5.33" transform="translate(230.11 242.31) rotate(180)" style="fill:#fff;opacity:0.6000000000000001;isolation:isolate"></rect><rect x="248.37" y="120.18" width="1.18" height="2.67" style="fill:#fff;opacity:0.6000000000000001;isolation:isolate"></rect><rect x="250.37" y="119.21" width="9.44" height="4.61" transform="translate(510.18 243.03) rotate(180)" style="fill:#fff;opacity:0.6000000000000001;isolation:isolate"></rect><rect x="109.98" y="135.4" width="153.9" height="26.37" style="fill:#22B8CF;isolation:isolate"></rect><rect x="109.98" y="164.03" width="153.9" height="224.04" style="fill:#fff;opacity:0.8;isolation:isolate"></rect><g style="opacity:0.1;isolation:isolate"><path d="M259.81,341.06H114.05a.5.5,0,0,1,0-1H259.81a.5.5,0,0,1,0,1Z"></path></g><path d="M149,324.05H123.46a1.19,1.19,0,0,1-1.19-1.19h0a1.19,1.19,0,0,1,1.19-1.19H149a1.19,1.19,0,0,1,1.19,1.19h0A1.19,1.19,0,0,1,149,324.05Z" style="opacity:0.30000000000000004;isolation:isolate"></path><path d="M179,329.18H123.46a1.18,1.18,0,0,1-1.19-1.18h0a1.19,1.19,0,0,1,1.19-1.19H179a1.19,1.19,0,0,1,1.19,1.19h0A1.18,1.18,0,0,1,179,329.18Z" style="opacity:0.30000000000000004;isolation:isolate"></path><g style="opacity:0.1;isolation:isolate"><path d="M259.81,370.26H114.05a.5.5,0,0,1-.5-.5.51.51,0,0,1,.5-.5H259.81a.5.5,0,0,1,.5.5A.5.5,0,0,1,259.81,370.26Z"></path></g><path d="M149,353.25H123.46a1.18,1.18,0,0,1-1.19-1.18h0a1.19,1.19,0,0,1,1.19-1.19H149a1.19,1.19,0,0,1,1.19,1.19h0A1.18,1.18,0,0,1,149,353.25Z" style="opacity:0.30000000000000004;isolation:isolate"></path><path d="M179,358.39H123.46a1.19,1.19,0,0,1-1.19-1.19h0a1.19,1.19,0,0,1,1.19-1.19H179a1.19,1.19,0,0,1,1.19,1.19h0A1.19,1.19,0,0,1,179,358.39Z" style="opacity:0.30000000000000004;isolation:isolate"></path><path d="M188.21,403.94h-2.55a2.45,2.45,0,0,1-2.44-2.44V399a2.44,2.44,0,0,1,2.44-2.43h2.55a2.43,2.43,0,0,1,2.43,2.43v2.55A2.44,2.44,0,0,1,188.21,403.94Zm-2.55-6.42a1.44,1.44,0,0,0-1.44,1.43v2.55a1.45,1.45,0,0,0,1.44,1.44h2.55a1.44,1.44,0,0,0,1.43-1.44V399a1.43,1.43,0,0,0-1.43-1.43Z" style="fill:#fff"></path><path d="M186.91,112.49a2.23,2.23,0,1,1-2.23-2.22A2.23,2.23,0,0,1,186.91,112.49Z" style="opacity:0.6000000000000001;isolation:isolate"></path><path d="M191.4,112.49a1.42,1.42,0,1,1-1.42-1.43A1.42,1.42,0,0,1,191.4,112.49Z" style="opacity:0.6000000000000001;isolation:isolate"></path><circle cx="186.93" cy="230.47" r="45.11" style="fill:#263238"></circle><path d="M161.31,226.79a2.33,2.33,0,0,1-1.64-4,38.59,38.59,0,0,1,54.53,0,2.33,2.33,0,1,1-3.3,3.3,33.93,33.93,0,0,0-47.94,0A2.33,2.33,0,0,1,161.31,226.79Z" style="fill:#fff"></path><path d="M169.23,234.71a2.34,2.34,0,0,1-1.65-4,27.4,27.4,0,0,1,38.7,0A2.33,2.33,0,0,1,203,234a22.73,22.73,0,0,0-32.11,0A2.32,2.32,0,0,1,169.23,234.71Z" style="fill:#fff"></path><path d="M177.15,242.62a2.33,2.33,0,0,1-1.65-4,16.19,16.19,0,0,1,22.87,0,2.33,2.33,0,0,1-3.3,3.3,11.5,11.5,0,0,0-16.27,0A2.37,2.37,0,0,1,177.15,242.62Z" style="fill:#fff"></path><path d="M189.29,247.71a3.34,3.34,0,1,1-4.72,0A3.34,3.34,0,0,1,189.29,247.71Z" style="fill:#fff"></path><path d="M122.75,154.94a1,1,0,0,1-.71-.29l-5.36-5.36a1,1,0,0,1-.29-.71,1,1,0,0,1,.29-.7l5.36-5.36a1,1,0,0,1,1.41,0,1,1,0,0,1,0,1.41l-4.65,4.65,4.65,4.65a1,1,0,0,1,0,1.42A1,1,0,0,1,122.75,154.94Z" style="fill:#fff"></path><path d="M256.45,144.08a1.18,1.18,0,1,1-1.18-1.18A1.18,1.18,0,0,1,256.45,144.08Z" style="fill:#fff"></path><path d="M256.45,148.58a1.18,1.18,0,1,1-1.18-1.18A1.18,1.18,0,0,1,256.45,148.58Z" style="fill:#fff"></path><path d="M256.45,153.08a1.18,1.18,0,1,1-1.18-1.18A1.18,1.18,0,0,1,256.45,153.08Z" style="fill:#fff"></path><circle cx="223.12" cy="260.34" r="15.24" style="fill:#22B8CF;isolation:isolate"></circle><path d="M229.24,267.46a1,1,0,0,1-.71-.29L216.3,254.93a1,1,0,0,1,1.41-1.41L230,265.75a1,1,0,0,1,0,1.42A1,1,0,0,1,229.24,267.46Z" style="fill:#fff"></path><path d="M217,267.46a1,1,0,0,1-.71-1.71l12.23-12.23a1,1,0,0,1,1.42,0,1,1,0,0,1,0,1.41l-12.24,12.24A1,1,0,0,1,217,267.46Z" style="fill:#fff"></path><g style="opacity:0.1;isolation:isolate"><path d="M259.81,311.86H114.05a.51.51,0,0,1-.5-.5.5.5,0,0,1,.5-.5H259.81a.5.5,0,0,1,.5.5A.5.5,0,0,1,259.81,311.86Z"></path></g><g style="opacity:0.30000000000000004;isolation:isolate"><path d="M233.74,324.61a.8.8,0,0,1-.56-1.36,13.16,13.16,0,0,1,18.58,0,.79.79,0,0,1-1.12,1.12,11.58,11.58,0,0,0-16.34,0A.76.76,0,0,1,233.74,324.61Z"></path><path d="M236.44,327.3a.76.76,0,0,1-.56-.23.79.79,0,0,1,0-1.12,9.32,9.32,0,0,1,13.18,0,.79.79,0,0,1-1.12,1.12,7.75,7.75,0,0,0-10.94,0A.76.76,0,0,1,236.44,327.3Z"></path><path d="M239.14,330a.83.83,0,0,1-.57-.23.8.8,0,0,1,0-1.13,5.53,5.53,0,0,1,7.8,0,.8.8,0,0,1-1.13,1.13,3.91,3.91,0,0,0-5.54,0A.82.82,0,0,1,239.14,330Z"></path><circle cx="242.47" cy="332.54" r="1.14"></circle></g><path d="M254.37,329.31a4.37,4.37,0,1,1-4.37-4.38A4.37,4.37,0,0,1,254.37,329.31Z" style="fill:#263238"></path><path d="M251.75,331.56a.5.5,0,0,1-.35-.15l-3.51-3.51a.5.5,0,0,1,0-.7.5.5,0,0,1,.71,0l3.51,3.51a.5.5,0,0,1,0,.7A.51.51,0,0,1,251.75,331.56Z" style="fill:#fff"></path><path d="M248.25,331.56a.51.51,0,0,1-.36-.15.5.5,0,0,1,0-.7l3.51-3.51a.5.5,0,0,1,.71,0,.5.5,0,0,1,0,.7l-3.51,3.51A.5.5,0,0,1,248.25,331.56Z" style="fill:#fff"></path><g style="opacity:0.30000000000000004;isolation:isolate"><path d="M233.74,353.61a.82.82,0,0,1-.56-.23.8.8,0,0,1,0-1.13,13.16,13.16,0,0,1,18.58,0,.8.8,0,0,1,0,1.13.79.79,0,0,1-1.12,0,11.56,11.56,0,0,0-16.34,0A.79.79,0,0,1,233.74,353.61Z"></path><path d="M236.44,356.31a.77.77,0,0,1-.56-.24.79.79,0,0,1,0-1.12,9.32,9.32,0,0,1,13.18,0,.79.79,0,0,1-1.12,1.12,7.75,7.75,0,0,0-10.94,0A.77.77,0,0,1,236.44,356.31Z"></path><path d="M239.14,359a.83.83,0,0,1-.57-.23.79.79,0,0,1,0-1.12,5.5,5.5,0,0,1,7.8,0,.79.79,0,0,1,0,1.12.8.8,0,0,1-1.13,0,3.91,3.91,0,0,0-5.54,0A.82.82,0,0,1,239.14,359Z"></path><circle cx="242.47" cy="361.54" r="1.14"></circle></g><path d="M254.37,358.31a4.37,4.37,0,1,1-4.37-4.38A4.37,4.37,0,0,1,254.37,358.31Z" style="fill:#263238"></path><path d="M251.75,360.56a.54.54,0,0,1-.35-.14l-3.51-3.51a.51.51,0,0,1,0-.71.5.5,0,0,1,.71,0l3.51,3.51a.51.51,0,0,1,0,.71A.54.54,0,0,1,251.75,360.56Z" style="fill:#fff"></path><path d="M248.25,360.56a.54.54,0,0,1-.36-.14.51.51,0,0,1,0-.71l3.51-3.51a.5.5,0,0,1,.71,0,.51.51,0,0,1,0,.71l-3.51,3.51A.54.54,0,0,1,248.25,360.56Z" style="fill:#fff"></path><path d="M259.14,112.1,106,265.25V115.67a3.44,3.44,0,0,1,3.3-3.57h38.43a2.72,2.72,0,0,1,2.48,1.73l1.59,3.92a2.7,2.7,0,0,0,2.47,1.71h65.43a2.67,2.67,0,0,0,2.47-1.68l1.59-3.94a2.73,2.73,0,0,1,2.48-1.74Z" style="fill:#fff;opacity:0.2;isolation:isolate"></path><polygon points="267.88 140.49 267.88 153.06 105.99 314.94 105.99 302.38 267.88 140.49" style="fill:#fff;opacity:0.2;isolation:isolate"></polygon></g><g id="freepik--Character--inject-32"><g id="freepik--group--inject-32"><path d="M293.06,213.09s-5.32,6.59-6.11,9,.79.92.79.92-2.16,18.64-.78,23.79,18.78,5.66,23.73,2.84,12.3-56.83,8-60.79S296.39,185.14,293.06,213.09Z" style="fill:#263238"></path><path d="M271.72,184.08l-1-6.31a24.19,24.19,0,0,0-2.57-3.46c-.79-.67-2-6.59-1-9.17s6.72-4.63,6.72-4.63l2.76,13.8-1.41,2.49,1.12,5.21Z" style="fill:#ebb376"></path><path d="M304.9,166.17c-6.51.91-17.9,32.75-21.86,32.28C281.71,198.29,276,177,276,177l-5.86,3.85S275,207,279.82,209.1c7.62,3.35,23.54-23.35,23.54-23.35Z" style="fill:#22B8CF"></path><path d="M303.25,163.9c-3.65.29-16.9,23.88-16.9,23.88l8.45,13.6,5-5.54Z" style="fill:#22B8CF"></path><path d="M303.25,163.9l-1.7,15.78-1.75,16.16-5,5.54L292.7,198l-6.35-10.21S299.6,164.19,303.25,163.9Z" style="fill:#fff;opacity:0.6000000000000001;isolation:isolate"></path><path d="M301.55,179.68l-1.75,16.16-5,5.54L292.7,198C293.09,188.67,298.67,182.34,301.55,179.68Z" style="opacity:0.2;isolation:isolate"></path><path d="M282.14,171.93a.69.69,0,0,1-.58.86l-7.62,1.07a.89.89,0,0,1-1-.65l-3.81-14.8a.77.77,0,0,1,.57-1l7.62-1.06a1,1,0,0,1,1,.75Z" style="fill:#263238"></path><path d="M277.47,157.15l3.85,14.94a.58.58,0,0,1-.5.8l-6.46.91c-.43.06-1.26-.07-1.37-.49l-3.86-15c-.1-.42.59-.87,1-.93l6.46-.9A.79.79,0,0,1,277.47,157.15Z" style="fill:#fff;opacity:0.5"></path><path d="M337.3,408.53h9.9a.74.74,0,0,1,.7.56l1.6,7.26a1.19,1.19,0,0,1-.92,1.42,1.24,1.24,0,0,1-.27,0c-3.2-.05-5.53-.25-9.56-.25-2.47,0-9.95.26-13.37.26s-3.86-3.38-2.46-3.69c6.28-1.37,11-3.26,13-5.07A2,2,0,0,1,337.3,408.53Z" style="fill:#263238"></path><path d="M295.32,408.27h9.9a.74.74,0,0,1,.7.56l1.6,7.26a1.2,1.2,0,0,1-.92,1.43l-.27,0c-3.2-.05-5.53-.25-9.56-.25-2.47,0-9.95.26-13.37.26s-3.86-3.38-2.46-3.69c6.28-1.37,11-3.26,13-5.07A2,2,0,0,1,295.32,408.27Z" style="fill:#263238"></path><path d="M342.55,225H299.3c-4.11,22.46-15.87,113.33-6.63,184.14l14.44,1.58S304.84,302,317.77,267.2c1.48,18.59,3.25,38.38,4.78,48.91,3.77,25.91,12.25,93.45,12.25,93.45l14.63.4s-3.2-65.51-4.61-91C343.28,291.33,342.61,230.71,342.55,225Z" style="fill:#263238"></path><path d="M342.55,225H299.3c-4.11,22.46-15.87,113.33-6.63,184.14l14.44,1.58S304.84,302,317.77,267.2c1.48,18.59,3.25,38.38,4.78,48.91,3.77,25.91,12.25,93.45,12.25,93.45l14.63.4s-3.2-65.51-4.61-91C343.28,291.33,342.61,230.71,342.55,225Z" style="fill:#fff;opacity:0.2;isolation:isolate"></path><path d="M317.76,267.2a117,117,0,0,0-4.83,18.71c-1.21-16.55,3.63-34.1,3.63-34.1Z" style="opacity:0.2;isolation:isolate"></path><polygon points="298.94 225.55 342.48 225.55 342.48 230.74 298.38 230.2 298.94 225.55" style="fill:#263238"></polygon><rect x="326.93" y="223.22" width="1.55" height="9.2" style="fill:#263238"></rect><rect x="304.9" y="223.22" width="1.55" height="9.2" style="fill:#263238"></rect><rect x="310.73" y="224.65" width="8.05" height="5.8" style="fill:#fff"></rect><rect x="326.93" y="223.22" width="1.55" height="9.2" style="fill:#fff;opacity:0.2;isolation:isolate"></rect><rect x="304.9" y="223.22" width="1.55" height="9.2" style="fill:#fff;opacity:0.2;isolation:isolate"></rect><path d="M303.25,163.9s27.51-1.06,48,3.18c0,0-9.05,37.27-8.71,58.47H298.94S296.11,185.78,303.25,163.9Z" style="fill:#22B8CF"></path><path d="M335.19,165c-3.95,3.59-13.62,2.26-13.62,2.26s-6.05-1.65-4.78-3.54c3.56-.59,5.28-2.25,6-4.38a10.43,10.43,0,0,0,.36-4.06,22,22,0,0,0-.3-2.27l12-8.86C333.24,150,331.33,160.78,335.19,165Z" style="fill:#ebb376"></path><path d="M332.05,149.8c-.48,7.18-6.38,9.16-9.26,9.56a10.43,10.43,0,0,0,.36-4.06Z" style="opacity:0.2;isolation:isolate"></path><path d="M314.56,125.57s-3.34,10.8,1.89,15.93,8.31-15.44,8.31-15.44Z" style="fill:#263238"></path><path d="M332.16,152.83a10.13,10.13,0,0,1-12.1,2.16,11.26,11.26,0,0,1-5.59-6.15,10.16,10.16,0,0,1-.38-1.14c-1.87-7.18-1-19.13,6.79-22.49a11,11,0,0,1,15.38,10.68C336,143.92,336.15,148.65,332.16,152.83Z" style="fill:#ebb376"></path><path d="M324.89,138.31c.06.65-.31,1.19-.75,1.2s-.78-.52-.8-1.17.33-1.19.75-1.2S324.87,137.65,324.89,138.31Z" style="fill:#263238"></path><path d="M316.5,138.46c.06.65-.33,1.19-.75,1.2s-.78-.52-.8-1.17.33-1.19.75-1.2S316.49,137.84,316.5,138.46Z" style="fill:#263238"></path><path d="M319.08,138.81a23.49,23.49,0,0,1-3,5.66,3.78,3.78,0,0,0,3.15.52Z" style="fill:#d58745"></path><path d="M326.36,136a.43.43,0,0,1-.38-.15,3.08,3.08,0,0,0-2.48-1.23.38.38,0,1,1-.07-.76h0a3.78,3.78,0,0,1,3.15,1.52.36.36,0,0,1-.05.53h0Z" style="fill:#263238"></path><path d="M313.5,136.05a.37.37,0,0,1-.23,0,.39.39,0,0,1-.2-.5h0a3.79,3.79,0,0,1,2.72-2.21.38.38,0,0,1,.43.32h0a.38.38,0,0,1-.32.43h0a3.12,3.12,0,0,0-2.13,1.79A.4.4,0,0,1,313.5,136.05Z" style="fill:#263238"></path><path d="M330.16,126l-.53,3.52a2.64,2.64,0,0,1,1.24,3.36c-1.23,3,.33,7.61,2.57,9.51,0,0,.1-1.28,1.18-.95s.6,7-1.61,10.19a23.36,23.36,0,0,0,5.84-10.44c1.86-6.48,1.67-11.27.4-13.83Z" style="fill:#263238"></path><path d="M339.9,142.41a7.69,7.69,0,0,1-4.3,4c-2.53.9-4-1.31-3.44-3.79.49-2.21,2.39-5.4,5-5.21S340.92,140.14,339.9,142.41Z" style="fill:#ebb376"></path><path d="M320.77,149.31l-.09,0a.24.24,0,0,1-.14-.32s1.39-3.64,4.8-3.52a.25.25,0,0,1,.25.25.24.24,0,0,1-.26.25c-3-.1-4.31,3.17-4.33,3.2A.25.25,0,0,1,320.77,149.31Z" style="fill:#263238"></path><path d="M317.64,126c1.5,3.05,10.84-.18,13.42,1.8s9.05,2.77,9.05,2.77,3.49-6.3-3.84-9.7c-12.93-6-28.2-1-23.53,8.39,0,0-.83-3.93,2-5,0,0-2.69,1.5-.12,5Z" style="fill:#263238"></path><polygon points="335.19 162.81 329.63 165.57 332.41 234.41 349.44 232.42 351.26 167.07 335.19 162.81" style="fill:#22B8CF"></polygon><polygon points="351.26 167.08 350.8 183.67 350.45 195.95 349.43 232.42 332.41 234.41 329.63 165.58 335.19 162.81 351.26 167.08" style="fill:#fff;opacity:0.6000000000000001;isolation:isolate"></polygon><polygon points="329.63 165.57 336.16 160.43 340.22 163.78 335.19 170.22 329.63 165.57" style="fill:#22B8CF"></polygon><polygon points="329.63 165.57 336.16 160.43 340.22 163.78 335.19 170.22 329.63 165.57" style="fill:#fff;opacity:0.7000000000000001;isolation:isolate"></polygon><path d="M316.79,163.74c-2.75,3.81-14.42,70.67-14.42,70.67l-8.5-1s3.93-65.06,9.38-69.52Z" style="fill:#22B8CF"></path><path d="M316.79,163.74c-2.75,3.81-14.42,70.67-14.42,70.67l-8.5-1s3.93-65.06,9.38-69.52Z" style="fill:#fff;opacity:0.6000000000000001;isolation:isolate"></path><path d="M295.92,206.66s.7-33.61,14.81-42.92h4S298.83,181,295.92,206.66Z" style="fill:#263238"></path><polygon points="318.78 160.43 313.04 163.74 312.74 167.52 317.76 163.98 318.78 160.43" style="fill:#22B8CF"></polygon><polygon points="318.78 160.43 313.04 163.74 312.74 167.52 317.76 163.98 318.78 160.43" style="fill:#fff;opacity:0.7000000000000001;isolation:isolate"></polygon><path d="M351.26,215.82l-4,3.85s-3.15,1.7-3.61,3c-1.08,3,2,10.86,2.74,11.77,1,1.29,9.58,0,9.58,0s-2.07-8.35-3.27-10.48a9,9,0,0,0-1.69-2.2l3.77-3.54Z" style="fill:#ebb376"></path><path d="M350.8,183.67,350.45,196c-3.64-6.54-1.31-16.27-1.31-16.27S349.85,181.32,350.8,183.67Z" style="opacity:0.2;isolation:isolate"></path><path d="M353.21,172.29c5.93.49,22.26,22.25,21.65,27s-21.27,22.12-21.27,22.12l-5.16-4.56s16.77-16.41,17-18.24-14.63-17.7-14.63-17.7Z" style="fill:#22B8CF"></path><path d="M351.26,167.08c2.15,1,8.77,6.8,17.08,18.18l-10.19,9.41-7.53-4.86s-1.27-3.66-1.56-11.87S351.26,167.08,351.26,167.08Z" style="fill:#22B8CF"></path><path d="M351.26,167.08c2.15,1,8.77,6.8,17.08,18.18l-10.19,9.41-7.53-4.86s-1.27-3.66-1.56-11.87S351.26,167.08,351.26,167.08Z" style="fill:#fff;opacity:0.6000000000000001;isolation:isolate"></path></g></g></svg>